<svg width="441" height="437" viewBox="0 0 441 437" fill="none" xmlns="http://www.w3.org/2000/svg">
<mask id="mask0_1252_1955" style="mask-type:alpha" maskUnits="userSpaceOnUse" x="0" y="0" width="428" height="422">
<rect width="428" height="421.164" rx="23.7778" fill="url(#paint0_radial_1252_1955)"/>
</mask>
<g mask="url(#mask0_1252_1955)">
<path fill-rule="evenodd" clip-rule="evenodd" d="M101.089 30.9111C60.0328 30.9111 26.75 64.7156 26.75 105.736C26.75 146.756 60.0328 180.56 101.089 180.56C117.299 180.56 125.414 200.162 113.946 211.62L48.7736 276.735C19.4465 306.036 19.8405 353.936 49.1676 383.237C78.4948 412.539 126.437 412.932 155.765 383.631L221.214 318.24C232.366 307.098 251.422 314.996 251.422 330.76C251.422 371.78 285.257 405.034 326.313 405.034C367.37 405.034 401.204 371.78 401.204 330.76V109.928C401.266 108.139 401.265 106.348 401.201 104.558C401.032 84.3667 392.665 66.0959 379.294 52.8034C365.852 39.3052 347.324 30.9111 326.865 30.9111H101.089ZM64.196 105.736C64.196 126.398 80.9609 143.148 101.641 143.148H139.029C159.741 143.148 176.532 159.939 176.532 180.651V217.973C176.532 238.635 193.297 255.385 213.978 255.385H251.365C272.078 255.385 288.868 272.176 288.868 292.888V330.209C288.868 350.872 305.633 367.622 326.314 367.622C346.994 367.622 363.759 350.872 363.759 330.209V217.973C363.759 197.31 346.994 180.56 326.314 180.56H288.926C268.214 180.56 251.423 163.77 251.423 143.057V105.736C251.423 85.0737 234.658 68.3236 213.978 68.3236H101.641C80.9609 68.3236 64.196 85.0737 64.196 105.736ZM64.1961 330.209C64.1961 309.547 80.9793 292.797 101.641 292.797C122.304 292.797 139.087 309.547 139.087 330.209C139.087 350.872 122.304 367.622 101.641 367.622C80.9793 367.622 64.1961 350.872 64.1961 330.209Z" fill="url(#paint1_radial_1252_1955)"/>
<path d="M101.089 30.6139C59.866 30.6139 26.4528 64.5541 26.4528 105.736C26.4528 146.917 59.866 180.857 101.089 180.857C117.035 180.857 125.016 200.139 113.736 211.409L48.5635 276.525C19.1182 305.944 19.5163 354.032 48.9576 383.448C78.3987 412.863 126.529 413.261 155.975 383.841L221.424 318.45C232.389 307.495 251.125 315.261 251.125 330.76C251.125 371.948 285.096 405.331 326.313 405.331C367.531 405.331 401.501 371.948 401.501 330.76V109.933C401.563 108.14 401.563 106.345 401.499 104.552C401.327 84.28 392.927 65.9374 379.505 52.5937C366.01 39.0425 347.407 30.6139 326.865 30.6139H101.089ZM101.641 142.851C81.1248 142.851 64.4933 126.234 64.4933 105.736C64.4933 85.2381 81.1248 68.6209 101.641 68.6209H213.978C234.494 68.6209 251.126 85.2381 251.126 105.736V143.057C251.126 163.934 268.05 180.858 288.926 180.858H326.314C346.83 180.858 363.462 197.475 363.462 217.973V330.209C363.462 350.707 346.83 367.324 326.314 367.324C305.797 367.324 289.166 350.707 289.166 330.209V292.888C289.166 272.011 272.242 255.088 251.365 255.088H213.978C193.461 255.088 176.829 238.47 176.829 217.973V180.651C176.829 159.775 159.906 142.851 139.029 142.851H101.641ZM64.4933 330.209C64.4933 309.712 81.1431 293.094 101.641 293.094C122.14 293.094 138.79 309.712 138.79 330.209C138.79 350.707 122.14 367.324 101.641 367.324C81.1431 367.324 64.4933 350.707 64.4933 330.209Z" stroke="url(#paint2_linear_1252_1955)" stroke-opacity="0.5" stroke-width="0.594444"/>
</g>
<rect width="441" height="177" transform="matrix(1 0 0 -1 0 437)" fill="url(#paint3_linear_1252_1955)"/>
<defs>
<radialGradient id="paint0_radial_1252_1955" cx="0" cy="0" r="1" gradientUnits="userSpaceOnUse" gradientTransform="translate(27.854 35.2725) rotate(35.8386) scale(576.355 1125.37)">
<stop stop-color="#F9F9F9"/>
<stop offset="1" stop-color="#F0F0F0"/>
</radialGradient>
<radialGradient id="paint1_radial_1252_1955" cx="0" cy="0" r="1" gradientUnits="userSpaceOnUse" gradientTransform="translate(52.1625 64.8502) rotate(36.1118) scale(504.771 992.548)">
<stop stop-color="#151515"/>
<stop offset="1" stop-color="#222222"/>
</radialGradient>
<linearGradient id="paint2_linear_1252_1955" x1="384.16" y1="65.5375" x2="105.96" y2="187.696" gradientUnits="userSpaceOnUse">
<stop stop-color="white" stop-opacity="0.5"/>
<stop offset="1" stop-color="#616161" stop-opacity="0.3"/>
</linearGradient>
<linearGradient id="paint3_linear_1252_1955" x1="220.5" y1="0" x2="220.5" y2="177" gradientUnits="userSpaceOnUse">
<stop stop-color="#151515"/>
<stop offset="1" stop-color="#151515" stop-opacity="0"/>
</linearGradient>
</defs>
</svg>
