<svg xmlns="http://www.w3.org/2000/svg" width="329" height="120" viewBox="0 0 329 120" fill="none">
<rect width="174" height="120" rx="40" fill="#008BBF"/>
<path d="M77.7683 45H80.3283L75.9443 57H73.4003L74.8403 53L71.9603 45H74.5843L76.0403 49.72L77.7683 45ZM84.4722 53.208C83.7362 53.208 83.0642 53.0187 82.4562 52.64C81.8535 52.2613 81.3709 51.7547 81.0082 51.12C80.6509 50.48 80.4722 49.7733 80.4722 49C80.4722 48.4133 80.5762 47.8667 80.7842 47.36C80.9922 46.848 81.2775 46.4 81.6402 46.016C82.0082 45.6267 82.4349 45.3227 82.9202 45.104C83.4055 44.8853 83.9229 44.776 84.4722 44.776C85.2082 44.776 85.8775 44.9653 86.4802 45.344C87.0882 45.7227 87.5709 46.232 87.9282 46.872C88.2909 47.512 88.4722 48.2213 88.4722 49C88.4722 49.5813 88.3682 50.1253 88.1602 50.632C87.9522 51.1387 87.6642 51.5867 87.2962 51.976C86.9335 52.36 86.5095 52.6613 86.0242 52.88C85.5442 53.0987 85.0269 53.208 84.4722 53.208ZM84.4722 50.808C84.7762 50.808 85.0482 50.7253 85.2882 50.56C85.5335 50.3947 85.7255 50.176 85.8642 49.904C86.0029 49.6267 86.0722 49.3253 86.0722 49C86.0722 48.664 85.9975 48.3573 85.8482 48.08C85.7042 47.8027 85.5095 47.584 85.2642 47.424C85.0242 47.2587 84.7602 47.176 84.4722 47.176C84.1735 47.176 83.9015 47.2613 83.6562 47.432C83.4162 47.5973 83.2242 47.8187 83.0802 48.096C82.9415 48.3733 82.8722 48.6747 82.8722 49C82.8722 49.3413 82.9442 49.648 83.0882 49.92C83.2375 50.192 83.4322 50.408 83.6722 50.568C83.9175 50.728 84.1842 50.808 84.4722 50.808ZM89.1166 50.096V45H91.5166V49.424C91.5166 49.6747 91.5779 49.904 91.7006 50.112C91.8232 50.3147 91.9859 50.4773 92.1886 50.6C92.3966 50.7173 92.6232 50.776 92.8686 50.776C93.1192 50.776 93.3459 50.7173 93.5486 50.6C93.7566 50.4773 93.9192 50.3147 94.0366 50.112C94.1592 49.904 94.2206 49.6747 94.2206 49.424V45H96.6206L96.6286 53H94.2286L94.2206 52.48C93.9539 52.7093 93.6499 52.888 93.3086 53.016C92.9672 53.144 92.6072 53.208 92.2286 53.208C91.6579 53.208 91.1352 53.0693 90.6606 52.792C90.1912 52.5093 89.8152 52.1333 89.5326 51.664C89.2552 51.1947 89.1166 50.672 89.1166 50.096ZM98.2414 53L98.2334 45H100.633L100.641 45.504C100.908 45.2747 101.212 45.096 101.553 44.968C101.895 44.84 102.255 44.776 102.633 44.776C102.921 44.776 103.215 44.8187 103.513 44.904L102.569 47.336C102.383 47.2507 102.191 47.208 101.993 47.208C101.743 47.208 101.513 47.2693 101.305 47.392C101.103 47.5093 100.94 47.672 100.817 47.88C100.7 48.0827 100.641 48.3093 100.641 48.56V53H98.2414ZM58.7153 72.376L60.8753 73.544C60.5073 74.0453 60.046 74.448 59.4913 74.752C58.9366 75.056 58.3313 75.208 57.6753 75.208C56.9393 75.208 56.2673 75.0187 55.6593 74.64C55.0566 74.2613 54.574 73.7547 54.2113 73.12C53.854 72.48 53.6753 71.7733 53.6753 71C53.6753 70.4133 53.7793 69.8667 53.9873 69.36C54.1953 68.848 54.4806 68.4 54.8433 68.016C55.2113 67.6267 55.638 67.3227 56.1233 67.104C56.6086 66.8853 57.126 66.776 57.6753 66.776C58.3313 66.776 58.9366 66.928 59.4913 67.232C60.046 67.536 60.5073 67.944 60.8753 68.456L58.7153 69.624C58.5713 69.48 58.4086 69.3707 58.2273 69.296C58.0513 69.216 57.8673 69.176 57.6753 69.176C57.3713 69.176 57.0993 69.2613 56.8593 69.432C56.6193 69.6027 56.4273 69.8267 56.2833 70.104C56.1446 70.3813 56.0753 70.68 56.0753 71C56.0753 71.3147 56.1446 71.6107 56.2833 71.888C56.4273 72.16 56.6193 72.3813 56.8593 72.552C57.0993 72.7227 57.3713 72.808 57.6753 72.808C57.8673 72.808 58.0513 72.7707 58.2273 72.696C58.4086 72.616 58.5713 72.5093 58.7153 72.376ZM65.5034 75.208C64.7674 75.208 64.0954 75.0187 63.4874 74.64C62.8848 74.2613 62.4021 73.7547 62.0394 73.12C61.6821 72.48 61.5034 71.7733 61.5034 71C61.5034 70.4133 61.6074 69.8667 61.8154 69.36C62.0234 68.848 62.3088 68.4 62.6714 68.016C63.0394 67.6267 63.4661 67.3227 63.9514 67.104C64.4368 66.8853 64.9541 66.776 65.5034 66.776C66.2394 66.776 66.9088 66.9653 67.5114 67.344C68.1194 67.7227 68.6021 68.232 68.9594 68.872C69.3221 69.512 69.5034 70.2213 69.5034 71C69.5034 71.5813 69.3994 72.1253 69.1914 72.632C68.9834 73.1387 68.6954 73.5867 68.3274 73.976C67.9648 74.36 67.5408 74.6613 67.0554 74.88C66.5754 75.0987 66.0581 75.208 65.5034 75.208ZM65.5034 72.808C65.8074 72.808 66.0794 72.7253 66.3194 72.56C66.5648 72.3947 66.7568 72.176 66.8954 71.904C67.0341 71.6267 67.1034 71.3253 67.1034 71C67.1034 70.664 67.0288 70.3573 66.8794 70.08C66.7354 69.8027 66.5408 69.584 66.2954 69.424C66.0554 69.2587 65.7914 69.176 65.5034 69.176C65.2048 69.176 64.9328 69.2613 64.6874 69.432C64.4474 69.5973 64.2554 69.8187 64.1114 70.096C63.9728 70.3733 63.9034 70.6747 63.9034 71C63.9034 71.3413 63.9754 71.648 64.1194 71.92C64.2688 72.192 64.4634 72.408 64.7034 72.568C64.9488 72.728 65.2154 72.808 65.5034 72.808ZM70.7022 75V67H73.1022V67.504C73.3689 67.2747 73.6729 67.096 74.0142 66.968C74.3555 66.84 74.7155 66.776 75.0942 66.776C75.6275 66.776 76.1182 66.8987 76.5662 67.144C77.0142 67.384 77.3769 67.7067 77.6542 68.112C77.9369 67.7067 78.2995 67.384 78.7422 67.144C79.1902 66.8987 79.6782 66.776 80.2062 66.776C80.7822 66.776 81.3049 66.9173 81.7742 67.2C82.2435 67.4773 82.6169 67.8507 82.8942 68.32C83.1769 68.7893 83.3182 69.312 83.3182 69.888V75H80.9182V70.56C80.9182 70.3093 80.8569 70.0827 80.7342 69.88C80.6115 69.6773 80.4489 69.5147 80.2462 69.392C80.0435 69.2693 79.8169 69.208 79.5662 69.208C79.3155 69.208 79.0862 69.2693 78.8782 69.392C78.6755 69.5147 78.5129 69.6773 78.3902 69.88C78.2675 70.0827 78.2062 70.3093 78.2062 70.56V75H75.8062V70.56C75.8062 70.3093 75.7449 70.0827 75.6222 69.88C75.5049 69.6773 75.3422 69.5147 75.1342 69.392C74.9315 69.2693 74.7049 69.208 74.4542 69.208C74.2089 69.208 73.9822 69.2693 73.7742 69.392C73.5715 69.5147 73.4089 69.6773 73.2862 69.88C73.1635 70.0827 73.1022 70.3093 73.1022 70.56V75H70.7022ZM87.3209 79H84.9209V67H87.3209V67.752C87.5716 67.4693 87.8623 67.24 88.1929 67.064C88.5236 66.8827 88.9049 66.792 89.3369 66.792C89.9236 66.792 90.4703 66.9013 90.9769 67.12C91.4836 67.3387 91.9289 67.6427 92.3129 68.032C92.7023 68.416 93.0036 68.8613 93.2169 69.368C93.4356 69.8747 93.5449 70.4187 93.5449 71C93.5449 71.5813 93.4356 72.128 93.2169 72.64C93.0036 73.152 92.7023 73.6027 92.3129 73.992C91.9289 74.376 91.4836 74.6773 90.9769 74.896C90.4703 75.1147 89.9236 75.224 89.3369 75.224C88.9049 75.224 88.5236 75.1333 88.1929 74.952C87.8623 74.7707 87.5716 74.5413 87.3209 74.264V79ZM89.3049 69.096C88.9796 69.096 88.6809 69.184 88.4089 69.36C88.1423 69.5307 87.9289 69.76 87.7689 70.048C87.6089 70.336 87.5289 70.6533 87.5289 71C87.5289 71.352 87.6089 71.672 87.7689 71.96C87.9289 72.248 88.1423 72.4773 88.4089 72.648C88.6809 72.8187 88.9796 72.904 89.3049 72.904C89.6356 72.904 89.9369 72.8187 90.2089 72.648C90.4809 72.4773 90.6969 72.248 90.8569 71.96C91.0169 71.672 91.0969 71.352 91.0969 71C91.0969 70.6533 91.0169 70.336 90.8569 70.048C90.6969 69.76 90.4809 69.5307 90.2089 69.36C89.9369 69.184 89.6356 69.096 89.3049 69.096ZM100.571 67H102.971V75H100.563L100.451 74.28C100.254 74.5573 100.003 74.7813 99.6992 74.952C99.4005 75.1227 99.0512 75.208 98.6512 75.208C98.0539 75.208 97.4939 75.096 96.9712 74.872C96.4539 74.648 95.9979 74.3387 95.6032 73.944C95.2085 73.544 94.8992 73.0853 94.6752 72.568C94.4565 72.0453 94.3472 71.4853 94.3472 70.888C94.3472 70.3173 94.4512 69.784 94.6592 69.288C94.8672 68.792 95.1579 68.3573 95.5312 67.984C95.9099 67.6053 96.3445 67.3093 96.8352 67.096C97.3312 66.8827 97.8619 66.776 98.4272 66.776C98.8859 66.776 99.3019 66.872 99.6752 67.064C100.054 67.2507 100.39 67.4853 100.683 67.768L100.571 67ZM98.5872 72.904C98.9179 72.904 99.2192 72.8187 99.4912 72.648C99.7632 72.4773 99.9792 72.248 100.139 71.96C100.299 71.672 100.379 71.352 100.379 71C100.379 70.648 100.299 70.328 100.139 70.04C99.9792 69.752 99.7632 69.5227 99.4912 69.352C99.2192 69.1813 98.9179 69.096 98.5872 69.096C98.2565 69.096 97.9552 69.1813 97.6832 69.352C97.4165 69.5227 97.2032 69.752 97.0432 70.04C96.8885 70.328 96.8112 70.648 96.8112 71C96.8112 71.352 96.8912 71.672 97.0512 71.96C97.2112 72.248 97.4245 72.4773 97.6912 72.648C97.9632 72.8187 98.2619 72.904 98.5872 72.904ZM112.089 69.888V75H109.689V70.56C109.689 70.3093 109.628 70.0827 109.505 69.88C109.383 69.672 109.22 69.5093 109.017 69.392C108.815 69.2693 108.588 69.208 108.337 69.208C108.087 69.208 107.857 69.2693 107.649 69.392C107.447 69.5093 107.284 69.672 107.161 69.88C107.044 70.0827 106.985 70.3093 106.985 70.56V75H104.585L104.577 67H106.977L106.985 67.504C107.252 67.2747 107.556 67.096 107.897 66.968C108.239 66.84 108.599 66.776 108.977 66.776C109.553 66.776 110.076 66.9173 110.545 67.2C111.015 67.4773 111.388 67.8507 111.665 68.32C111.948 68.7893 112.089 69.312 112.089 69.888ZM118.612 67H121.172L116.788 79H114.244L115.684 75L112.804 67H115.428L116.884 71.72L118.612 67Z" fill="white"/>
<path d="M241.254 49.9751H244.134L239.202 63.4751H236.34L237.96 58.9751L234.72 49.9751H237.672L239.31 55.2851L241.254 49.9751ZM248.796 59.2091C247.968 59.2091 247.212 58.9961 246.528 58.5701C245.85 58.1441 245.307 57.5741 244.899 56.8601C244.497 56.1401 244.296 55.3451 244.296 54.4751C244.296 53.8151 244.413 53.2001 244.647 52.6301C244.881 52.0541 245.202 51.5501 245.61 51.1181C246.024 50.6801 246.504 50.3381 247.05 50.0921C247.596 49.8461 248.178 49.7231 248.796 49.7231C249.624 49.7231 250.377 49.9361 251.055 50.3621C251.739 50.7881 252.282 51.3611 252.684 52.0811C253.092 52.8011 253.296 53.5991 253.296 54.4751C253.296 55.1291 253.179 55.7411 252.945 56.3111C252.711 56.8811 252.387 57.3851 251.973 57.8231C251.565 58.2551 251.088 58.5941 250.542 58.8401C250.002 59.0861 249.42 59.2091 248.796 59.2091ZM248.796 56.5091C249.138 56.5091 249.444 56.4161 249.714 56.2301C249.99 56.0441 250.206 55.7981 250.362 55.4921C250.518 55.1801 250.596 54.8411 250.596 54.4751C250.596 54.0971 250.512 53.7521 250.344 53.4401C250.182 53.1281 249.963 52.8821 249.687 52.7021C249.417 52.5161 249.12 52.4231 248.796 52.4231C248.46 52.4231 248.154 52.5191 247.878 52.7111C247.608 52.8971 247.392 53.1461 247.23 53.4581C247.074 53.7701 246.996 54.1091 246.996 54.4751C246.996 54.8591 247.077 55.2041 247.239 55.5101C247.407 55.8161 247.626 56.0591 247.896 56.2391C248.172 56.4191 248.472 56.5091 248.796 56.5091ZM254.021 55.7081V49.9751H256.721V54.9521C256.721 55.2341 256.79 55.4921 256.928 55.7261C257.066 55.9541 257.249 56.1371 257.477 56.2751C257.711 56.4071 257.966 56.4731 258.242 56.4731C258.524 56.4731 258.779 56.4071 259.007 56.2751C259.241 56.1371 259.424 55.9541 259.556 55.7261C259.694 55.4921 259.763 55.2341 259.763 54.9521V49.9751H262.463L262.472 58.9751H259.772L259.763 58.3901C259.463 58.6481 259.121 58.8491 258.737 58.9931C258.353 59.1371 257.948 59.2091 257.522 59.2091C256.88 59.2091 256.292 59.0531 255.758 58.7411C255.23 58.4231 254.807 58.0001 254.489 57.4721C254.177 56.9441 254.021 56.3561 254.021 55.7081ZM263.557 51.0731L264.115 46.3751H266.815L265.357 51.0731H263.557ZM267.644 58.9751L267.635 49.9751H270.335L270.344 50.5421C270.644 50.2841 270.986 50.0831 271.37 49.9391C271.754 49.7951 272.159 49.7231 272.585 49.7231C272.909 49.7231 273.239 49.7711 273.575 49.8671L272.513 52.6031C272.303 52.5071 272.087 52.4591 271.865 52.4591C271.583 52.4591 271.325 52.5281 271.091 52.6661C270.863 52.7981 270.68 52.9811 270.542 53.2151C270.41 53.4431 270.344 53.6981 270.344 53.9801V58.9751H267.644ZM278.081 59.2091C277.253 59.2091 276.497 58.9961 275.813 58.5701C275.135 58.1441 274.592 57.5711 274.184 56.8511C273.782 56.1311 273.581 55.3361 273.581 54.4661C273.581 53.8121 273.698 53.2001 273.932 52.6301C274.166 52.0541 274.487 51.5501 274.895 51.1181C275.309 50.6801 275.789 50.3381 276.335 50.0921C276.881 49.8461 277.463 49.7231 278.081 49.7231C278.801 49.7231 279.458 49.8821 280.052 50.2001C280.652 50.5121 281.156 50.9381 281.564 51.4781C281.978 52.0121 282.272 52.6151 282.446 53.2871C282.62 53.9591 282.638 54.6521 282.5 55.3661H276.497C276.581 55.5761 276.692 55.7681 276.83 55.9421C276.974 56.1101 277.148 56.2451 277.352 56.3471C277.562 56.4491 277.805 56.5031 278.081 56.5091C278.345 56.5151 278.588 56.4581 278.81 56.3381C279.038 56.2181 279.236 56.0561 279.404 55.8521L282.158 56.4911C281.792 57.2891 281.246 57.9431 280.52 58.4531C279.794 58.9571 278.981 59.2091 278.081 59.2091ZM276.398 53.3861H279.773C279.689 53.1281 279.563 52.9001 279.395 52.7021C279.227 52.5041 279.029 52.3481 278.801 52.2341C278.579 52.1201 278.339 52.0631 278.081 52.0631C277.829 52.0631 277.589 52.1201 277.361 52.2341C277.139 52.3481 276.944 52.5041 276.776 52.7021C276.614 52.9001 276.488 53.1281 276.398 53.3861ZM296.969 53.2241V58.9751H294.269V53.9801C294.269 53.6981 294.2 53.4431 294.062 53.2151C293.924 52.9811 293.741 52.7981 293.513 52.6661C293.285 52.5281 293.03 52.4591 292.748 52.4591C292.466 52.4591 292.208 52.5281 291.974 52.6661C291.746 52.7981 291.563 52.9811 291.425 53.2151C291.293 53.4431 291.227 53.6981 291.227 53.9801V58.9751H288.527L288.518 49.9751H291.218L291.227 50.5421C291.527 50.2841 291.869 50.0831 292.253 49.9391C292.637 49.7951 293.042 49.7231 293.468 49.7231C294.116 49.7231 294.704 49.8821 295.232 50.2001C295.76 50.5121 296.18 50.9321 296.492 51.4601C296.81 51.9881 296.969 52.5761 296.969 53.2241ZM302.55 59.2091C301.722 59.2091 300.966 58.9961 300.282 58.5701C299.604 58.1441 299.061 57.5711 298.653 56.8511C298.251 56.1311 298.05 55.3361 298.05 54.4661C298.05 53.8121 298.167 53.2001 298.401 52.6301C298.635 52.0541 298.956 51.5501 299.364 51.1181C299.778 50.6801 300.258 50.3381 300.804 50.0921C301.35 49.8461 301.932 49.7231 302.55 49.7231C303.27 49.7231 303.927 49.8821 304.521 50.2001C305.121 50.5121 305.625 50.9381 306.033 51.4781C306.447 52.0121 306.741 52.6151 306.915 53.2871C307.089 53.9591 307.107 54.6521 306.969 55.3661H300.966C301.05 55.5761 301.161 55.7681 301.299 55.9421C301.443 56.1101 301.617 56.2451 301.821 56.3471C302.031 56.4491 302.274 56.5031 302.55 56.5091C302.814 56.5151 303.057 56.4581 303.279 56.3381C303.507 56.2181 303.705 56.0561 303.873 55.8521L306.627 56.4911C306.261 57.2891 305.715 57.9431 304.989 58.4531C304.263 58.9571 303.45 59.2091 302.55 59.2091ZM300.867 53.3861H304.242C304.158 53.1281 304.032 52.9001 303.864 52.7021C303.696 52.5041 303.498 52.3481 303.27 52.2341C303.048 52.1201 302.808 52.0631 302.55 52.0631C302.298 52.0631 302.058 52.1201 301.83 52.2341C301.608 52.3481 301.413 52.5041 301.245 52.7021C301.083 52.9001 300.957 53.1281 300.867 53.3861ZM307.23 58.9751L310.524 54.4571L307.266 49.9751H310.596L312.18 52.1531L313.782 49.9751H317.112L313.854 54.4571L317.148 58.9751H313.818L312.18 56.7431L310.56 58.9751H307.23ZM323.895 52.6751H322.365V58.9751H319.665V52.6751H318.495V49.9751H319.665V47.1491H322.365V49.9751H323.895V52.6751ZM325.375 55.1951V46.3751H327.625V55.1951H325.375ZM326.509 59.2091C326.131 59.2091 325.81 59.0771 325.546 58.8131C325.288 58.5491 325.159 58.2251 325.159 57.8411C325.159 57.4691 325.288 57.1541 325.546 56.8961C325.81 56.6381 326.131 56.5091 326.509 56.5091C326.881 56.5091 327.196 56.6381 327.454 56.8961C327.712 57.1541 327.841 57.4691 327.841 57.8411C327.841 58.2251 327.712 58.5491 327.454 58.8131C327.196 59.0771 326.881 59.2091 326.509 59.2091Z" fill="#CCCCCC"/>
<path d="M276.118 29.7983C254.797 8.60002 227.463 0.205345 202.261 15.2288C200.618 16.2078 199.046 17.2143 197.68 18.6978C197.354 19.052 196.584 20.0057 196.535 19.4783C196.252 16.3847 197.025 12.9341 196.571 9.63516C195.869 4.53385 196.246 13.5782 196.213 14.6218C196.18 15.6916 194.825 24.7559 195.999 25.0719C199.056 25.8953 202.589 25.0044 205.732 25.5055C206.451 25.6202 210.415 26.1542 207.843 25.1153" stroke="white" stroke-opacity="0.3" stroke-width="2.8393" stroke-linecap="round"/>
</svg>