<svg width="70" height="70" viewBox="0 0 70 70" fill="none" xmlns="http://www.w3.org/2000/svg">
<mask id="path-1-inside-1_129_7" fill="white">
<path fill-rule="evenodd" clip-rule="evenodd" d="M0 13.9858C0 6.31847 6.22108 -0.00012207 13.8952 -0.00012207H55.9931H56.0962C59.9203 -0.00012207 63.3836 1.56887 65.8961 4.09189C68.3953 6.57647 69.9592 9.99158 69.9909 13.7657C70.0029 14.1002 70.003 14.4349 69.9914 14.7693V56.0464C69.9914 63.7137 63.6672 69.9293 55.9931 69.9293C48.319 69.9293 41.9948 63.7137 41.9948 56.0464C41.9948 53.0998 38.4329 51.6235 36.3484 53.7061L24.1149 65.9289C18.6332 71.4057 9.67192 71.3321 4.19021 65.8553C-1.2915 60.3784 -1.36515 51.4251 4.11656 45.9482L16.2984 33.7772C18.4418 31.6356 16.9251 27.9717 13.8952 27.9717C6.22108 27.9717 0 21.6531 0 13.9858ZM13.9984 20.9788C10.1329 20.9788 6.99924 17.848 6.99924 13.9859C6.99924 10.1238 10.1329 6.99295 13.9984 6.99295H34.9958C38.8613 6.99295 41.9949 10.1238 41.9949 13.9859V20.4866C41.9949 24.6205 45.3462 27.9718 49.4801 27.9718H55.9932C59.8587 27.9718 62.9924 31.1026 62.9924 34.9647V55.9436C62.9924 59.8056 59.8587 62.9365 55.9932 62.9365C52.1277 62.9365 48.9941 59.8056 48.9941 55.9436V49.4429C48.9941 45.3089 45.6428 41.9577 41.5089 41.9577H34.9958C31.1303 41.9577 27.9967 38.8268 27.9967 34.9647V28.464C27.9967 24.3301 24.6454 20.9788 20.5115 20.9788H13.9984ZM13.9984 48.9507C10.1363 48.9507 6.99924 52.0815 6.99924 55.9436C6.99924 59.8057 10.1363 62.9365 13.9984 62.9365C17.8605 62.9365 20.9975 59.8057 20.9975 55.9436C20.9975 52.0815 17.8605 48.9507 13.9984 48.9507Z"/>
</mask>
<path fill-rule="evenodd" clip-rule="evenodd" d="M0 13.9858C0 6.31847 6.22108 -0.00012207 13.8952 -0.00012207H55.9931H56.0962C59.9203 -0.00012207 63.3836 1.56887 65.8961 4.09189C68.3953 6.57647 69.9592 9.99158 69.9909 13.7657C70.0029 14.1002 70.003 14.4349 69.9914 14.7693V56.0464C69.9914 63.7137 63.6672 69.9293 55.9931 69.9293C48.319 69.9293 41.9948 63.7137 41.9948 56.0464C41.9948 53.0998 38.4329 51.6235 36.3484 53.7061L24.1149 65.9289C18.6332 71.4057 9.67192 71.3321 4.19021 65.8553C-1.2915 60.3784 -1.36515 51.4251 4.11656 45.9482L16.2984 33.7772C18.4418 31.6356 16.9251 27.9717 13.8952 27.9717C6.22108 27.9717 0 21.6531 0 13.9858ZM13.9984 20.9788C10.1329 20.9788 6.99924 17.848 6.99924 13.9859C6.99924 10.1238 10.1329 6.99295 13.9984 6.99295H34.9958C38.8613 6.99295 41.9949 10.1238 41.9949 13.9859V20.4866C41.9949 24.6205 45.3462 27.9718 49.4801 27.9718H55.9932C59.8587 27.9718 62.9924 31.1026 62.9924 34.9647V55.9436C62.9924 59.8056 59.8587 62.9365 55.9932 62.9365C52.1277 62.9365 48.9941 59.8056 48.9941 55.9436V49.4429C48.9941 45.3089 45.6428 41.9577 41.5089 41.9577H34.9958C31.1303 41.9577 27.9967 38.8268 27.9967 34.9647V28.464C27.9967 24.3301 24.6454 20.9788 20.5115 20.9788H13.9984ZM13.9984 48.9507C10.1363 48.9507 6.99924 52.0815 6.99924 55.9436C6.99924 59.8057 10.1363 62.9365 13.9984 62.9365C17.8605 62.9365 20.9975 59.8057 20.9975 55.9436C20.9975 52.0815 17.8605 48.9507 13.9984 48.9507Z" fill="#008BBF"/>
<path d="M65.8961 4.09189L63.2441 6.73277L63.2508 6.73945L63.2575 6.74609L65.8961 4.09189ZM69.9909 13.7657L66.2484 13.7971L66.2489 13.8483L66.2507 13.8994L69.9909 13.7657ZM69.9914 14.7693L66.2511 14.6392L66.2488 14.7043V14.7693H69.9914ZM36.3484 53.7061L33.7032 51.0586L36.3484 53.7061ZM24.1149 65.9289L26.7601 68.5764L24.1149 65.9289ZM4.19021 65.8553L1.54496 68.5029H1.54496L4.19021 65.8553ZM4.11656 45.9482L6.76181 48.5958H6.76181L4.11656 45.9482ZM16.2984 33.7772L13.6531 31.1296L16.2984 33.7772ZM13.8952 -3.74272C4.12131 -3.74272 -3.7426 4.28442 -3.7426 13.9858H3.7426C3.7426 8.35251 8.32085 3.74248 13.8952 3.74248V-3.74272ZM55.9931 -3.74272H13.8952V3.74248H55.9931V-3.74272ZM56.0962 -3.74272H55.9931V3.74248H56.0962V-3.74272ZM68.548 1.45101C65.3705 -1.73982 60.9673 -3.74272 56.0962 -3.74272V3.74248C58.8734 3.74248 61.3967 4.87756 63.2441 6.73277L68.548 1.45101ZM73.7334 13.7343C73.693 8.92299 71.6954 4.5798 68.5347 1.43769L63.2575 6.74609C65.0953 8.57314 66.2254 11.0602 66.2484 13.7971L73.7334 13.7343ZM73.7317 14.8994C73.7464 14.4771 73.7462 14.0543 73.7311 13.632L66.2507 13.8994C66.2595 14.146 66.2596 14.3928 66.2511 14.6392L73.7317 14.8994ZM73.734 56.0464V14.7693H66.2488V56.0464H73.734ZM55.9931 73.6719C65.695 73.6719 73.734 65.8197 73.734 56.0464H66.2488C66.2488 61.6078 61.6395 66.1867 55.9931 66.1867V73.6719ZM38.2522 56.0464C38.2522 65.8197 46.2913 73.6719 55.9931 73.6719V66.1867C50.3468 66.1867 45.7374 61.6078 45.7374 56.0464H38.2522ZM38.9937 56.3537C38.9625 56.3849 38.8722 56.4452 38.7477 56.4667C38.6437 56.4847 38.5677 56.4674 38.5203 56.4477C38.4729 56.4281 38.4069 56.3866 38.3461 56.3003C38.2734 56.197 38.2522 56.0905 38.2522 56.0464H45.7374C45.7374 49.7664 38.1458 46.6198 33.7032 51.0586L38.9937 56.3537ZM26.7601 68.5764L38.9937 56.3537L33.7032 51.0586L21.4696 63.2813L26.7601 68.5764ZM1.54496 68.5029C8.46249 75.4143 19.7917 75.5387 26.7601 68.5764L21.4696 63.2813C17.4746 67.2728 10.8813 67.25 6.83546 63.2077L1.54496 68.5029ZM1.47131 43.3006C-5.49896 50.2647 -5.37433 61.5897 1.54496 68.5029L6.83546 63.2077C2.79133 59.1671 2.76867 52.5854 6.76181 48.5958L1.47131 43.3006ZM13.6531 31.1296L1.47131 43.3006L6.76181 48.5958L18.9436 36.4248L13.6531 31.1296ZM13.8952 31.7143C13.8955 31.7143 13.8879 31.7142 13.8734 31.712C13.859 31.7098 13.8405 31.7058 13.8191 31.6989C13.7749 31.6848 13.7317 31.6631 13.6941 31.6366C13.6223 31.586 13.5918 31.5341 13.5788 31.5028C13.5658 31.4715 13.5507 31.4132 13.5658 31.3266C13.5736 31.2813 13.5888 31.2354 13.6102 31.1942C13.6205 31.1742 13.6307 31.1583 13.6393 31.1465C13.648 31.1348 13.6534 31.1293 13.6531 31.1296L18.9436 36.4248C23.4464 31.926 20.2602 24.2291 13.8952 24.2291V31.7143ZM-3.7426 13.9858C-3.7426 23.6871 4.12131 31.7143 13.8952 31.7143V24.2291C8.32085 24.2291 3.7426 19.619 3.7426 13.9858H-3.7426ZM3.25664 13.9859C3.25664 19.9181 8.069 24.7214 13.9984 24.7214V17.2362C12.1967 17.2362 10.7418 15.7779 10.7418 13.9859H3.25664ZM13.9984 3.25035C8.06901 3.25035 3.25664 8.05369 3.25664 13.9859H10.7418C10.7418 12.1939 12.1967 10.7356 13.9984 10.7356V3.25035ZM34.9958 3.25035H13.9984V10.7356H34.9958V3.25035ZM45.7375 13.9859C45.7375 8.05369 40.9252 3.25035 34.9958 3.25035V10.7356C36.7975 10.7356 38.2523 12.1939 38.2523 13.9859H45.7375ZM45.7375 20.4866V13.9859H38.2523V20.4866H45.7375ZM49.4801 24.2292C47.4132 24.2292 45.7375 22.5536 45.7375 20.4866H38.2523C38.2523 26.6875 43.2792 31.7144 49.4801 31.7144V24.2292ZM55.9932 24.2292H49.4801V31.7144H55.9932V24.2292ZM66.735 34.9647C66.735 29.0325 61.9226 24.2292 55.9932 24.2292V31.7144C57.7949 31.7144 59.2498 33.1727 59.2498 34.9647H66.735ZM66.735 55.9436V34.9647H59.2498V55.9436H66.735ZM55.9932 66.6791C61.9226 66.6791 66.735 61.8758 66.735 55.9436H59.2498C59.2498 57.7355 57.7949 59.1939 55.9932 59.1939V66.6791ZM45.2515 55.9436C45.2515 61.8758 50.0638 66.6791 55.9932 66.6791V59.1939C54.1916 59.1939 52.7367 57.7355 52.7367 55.9436H45.2515ZM45.2515 49.4429V55.9436H52.7367V49.4429H45.2515ZM41.5089 45.7003C43.5759 45.7003 45.2515 47.3759 45.2515 49.4429H52.7367C52.7367 43.2419 47.7098 38.2151 41.5089 38.2151V45.7003ZM34.9958 45.7003H41.5089V38.2151H34.9958V45.7003ZM24.2541 34.9647C24.2541 40.8969 29.0664 45.7003 34.9958 45.7003V38.2151C33.1941 38.2151 31.7393 36.7567 31.7393 34.9647H24.2541ZM24.2541 28.464V34.9647H31.7393V28.464H24.2541ZM20.5115 24.7214C22.5784 24.7214 24.2541 26.3971 24.2541 28.464H31.7393C31.7393 22.2631 26.7124 17.2362 20.5115 17.2362V24.7214ZM13.9984 24.7214H20.5115V17.2362H13.9984V24.7214ZM10.7418 55.9436C10.7418 54.1528 12.1989 52.6933 13.9984 52.6933V45.2081C8.07362 45.2081 3.25664 50.0102 3.25664 55.9436H10.7418ZM13.9984 59.1939C12.1989 59.1939 10.7418 57.7344 10.7418 55.9436H3.25664C3.25664 61.877 8.07362 66.6791 13.9984 66.6791V59.1939ZM17.2549 55.9436C17.2549 57.7344 15.7978 59.1939 13.9984 59.1939V66.6791C19.9231 66.6791 24.7401 61.877 24.7401 55.9436H17.2549ZM13.9984 52.6933C15.7978 52.6933 17.2549 54.1528 17.2549 55.9436H24.7401C24.7401 50.0102 19.9231 45.2081 13.9984 45.2081V52.6933Z" fill="#008BBF" mask="url(#path-1-inside-1_129_7)"/>
</svg>
